<?xml version="1.0" encoding="utf-8"?>
<svg viewBox="0 0 100 100" xmlns="http://www.w3.org/2000/svg">
  <g id="logo">
    <path fill-rule="evenodd" clip-rule="evenodd" fill="#337AB7" d="M50,0C22.385,0,0,22.385,0,50c0,27.614,22.385,50,50,50  c27.615,0,50-22.386,50-50C100,22.385,77.615,0,50,0z M50,88.325c-21.167,0-38.325-17.159-38.325-38.325  c0-21.167,17.158-38.325,38.325-38.325c21.166,0,38.324,17.158,38.324,38.325C88.324,71.166,71.166,88.325,50,88.325z"/>
    <path fill-rule="evenodd" clip-rule="evenodd" fill="#337AB7" d="M70.996,53.399l-13.684-7.824V24.467  c0-4.147-3.305-7.509-7.382-7.509s-7.382,3.362-7.382,7.509v25.407c0,3.256,2.042,6.02,4.89,7.061l16.176,9.25  c3.592,2.074,8.155,0.893,10.194-2.639S74.588,55.473,70.996,53.399z"/>
  </g>
</svg>