<?xml version="1.0" encoding="utf-8"?>
<svg viewBox="6.267 5.397 347.077 77.169" xmlns="http://www.w3.org/2000/svg">
  <g id="logo" transform="matrix(0.771689, 0, 0, 0.771689, 6.266549, 5.397357)" style="">
    <path fill-rule="evenodd" clip-rule="evenodd" fill="#337AB7" d="M50,0C22.385,0,0,22.385,0,50c0,27.614,22.385,50,50,50  c27.615,0,50-22.386,50-50C100,22.385,77.615,0,50,0z M50,88.325c-21.167,0-38.325-17.159-38.325-38.325  c0-21.167,17.158-38.325,38.325-38.325c21.166,0,38.324,17.158,38.324,38.325C88.324,71.166,71.166,88.325,50,88.325z"/>
    <path fill-rule="evenodd" clip-rule="evenodd" fill="#337AB7" d="M70.996,53.399l-13.684-7.824V24.467  c0-4.147-3.305-7.509-7.382-7.509s-7.382,3.362-7.382,7.509v25.407c0,3.256,2.042,6.02,4.89,7.061l16.176,9.25  c3.592,2.074,8.155,0.893,10.194-2.639S74.588,55.473,70.996,53.399z"/>
  </g>
  <path d="M 95.528 62.054 C 94.521 62.054 93.731 61.777 93.158 61.224 C 92.585 60.671 92.298 59.891 92.298 58.884 L 92.298 28.564 C 92.298 27.557 92.585 26.777 93.158 26.224 C 93.731 25.671 94.521 25.394 95.528 25.394 L 114.298 25.394 C 115.305 25.394 116.085 25.621 116.638 26.074 C 117.191 26.521 117.468 27.161 117.468 27.994 C 117.468 28.861 117.191 29.527 116.638 29.994 C 116.085 30.461 115.305 30.694 114.298 30.694 L 98.848 30.694 L 98.848 40.784 L 113.258 40.784 C 114.265 40.784 115.045 41.011 115.598 41.464 C 116.151 41.911 116.428 42.567 116.428 43.434 C 116.428 44.267 116.151 44.911 115.598 45.364 C 115.045 45.811 114.265 46.034 113.258 46.034 L 98.848 46.034 L 98.848 56.754 L 114.298 56.754 C 115.305 56.754 116.085 56.987 116.638 57.454 C 117.191 57.921 117.468 58.587 117.468 59.454 C 117.468 60.287 117.191 60.927 116.638 61.374 C 116.085 61.827 115.305 62.054 114.298 62.054 L 95.528 62.054 ZM 131.553 62.474 C 127.78 62.474 124.73 61.727 122.403 60.234 C 121.296 59.574 120.743 58.637 120.743 57.424 C 120.743 56.731 120.933 56.167 121.313 55.734 C 121.693 55.301 122.16 55.084 122.713 55.084 C 123.306 55.084 124.123 55.361 125.163 55.914 C 126.27 56.434 127.283 56.834 128.203 57.114 C 129.123 57.394 130.293 57.534 131.713 57.534 C 133.166 57.534 134.303 57.291 135.123 56.804 C 135.936 56.317 136.343 55.641 136.343 54.774 C 136.343 54.187 136.176 53.721 135.843 53.374 C 135.516 53.027 134.93 52.704 134.083 52.404 C 133.23 52.111 131.936 51.774 130.203 51.394 C 127.116 50.767 124.906 49.884 123.573 48.744 C 122.24 47.597 121.573 46.021 121.573 44.014 C 121.573 42.487 122.023 41.107 122.923 39.874 C 123.823 38.647 125.063 37.694 126.643 37.014 C 128.223 36.341 130.016 36.004 132.023 36.004 C 133.483 36.004 134.886 36.184 136.233 36.544 C 137.586 36.911 138.8 37.441 139.873 38.134 C 140.986 38.827 141.543 39.747 141.543 40.894 C 141.543 41.587 141.353 42.167 140.973 42.634 C 140.586 43.101 140.116 43.334 139.563 43.334 C 139.183 43.334 138.81 43.257 138.443 43.104 C 138.083 42.944 137.626 42.707 137.073 42.394 C 136.066 41.874 135.2 41.484 134.473 41.224 C 133.74 40.964 132.836 40.834 131.763 40.834 C 130.483 40.834 129.47 41.094 128.723 41.614 C 127.976 42.134 127.603 42.847 127.603 43.754 C 127.603 44.621 127.986 45.277 128.753 45.724 C 129.513 46.177 130.986 46.627 133.173 47.074 C 135.493 47.561 137.313 48.117 138.633 48.744 C 139.946 49.364 140.89 50.144 141.463 51.084 C 142.036 52.017 142.323 53.214 142.323 54.674 C 142.323 57.027 141.343 58.914 139.383 60.334 C 137.423 61.761 134.813 62.474 131.553 62.474 ZM 160.521 57.534 C 162.254 57.634 163.121 58.414 163.121 59.874 C 163.121 60.701 162.781 61.331 162.101 61.764 C 161.427 62.197 160.467 62.381 159.221 62.314 L 157.811 62.214 C 151.991 61.794 149.081 58.674 149.081 52.854 L 149.081 41.514 L 146.481 41.514 C 145.541 41.514 144.821 41.307 144.321 40.894 C 143.821 40.474 143.571 39.867 143.571 39.074 C 143.571 38.274 143.821 37.667 144.321 37.254 C 144.821 36.834 145.541 36.624 146.481 36.624 L 149.081 36.624 L 149.081 31.844 C 149.081 30.904 149.374 30.157 149.961 29.604 C 150.554 29.051 151.351 28.774 152.351 28.774 C 153.324 28.774 154.104 29.051 154.691 29.604 C 155.284 30.157 155.581 30.904 155.581 31.844 L 155.581 36.624 L 160.001 36.624 C 160.934 36.624 161.654 36.834 162.161 37.254 C 162.661 37.667 162.911 38.274 162.911 39.074 C 162.911 39.867 162.661 40.474 162.161 40.894 C 161.654 41.307 160.934 41.514 160.001 41.514 L 155.581 41.514 L 155.581 53.314 C 155.581 55.881 156.757 57.251 159.111 57.424 L 160.521 57.534 ZM 169.717 62.364 C 168.783 62.364 168.013 62.097 167.407 61.564 C 166.8 61.024 166.497 60.251 166.497 59.244 L 166.497 39.174 C 166.497 38.167 166.8 37.404 167.407 36.884 C 168.013 36.364 168.783 36.104 169.717 36.104 C 170.657 36.104 171.437 36.364 172.057 36.884 C 172.683 37.404 172.997 38.167 172.997 39.174 L 172.997 59.244 C 172.997 60.251 172.683 61.024 172.057 61.564 C 171.437 62.097 170.657 62.364 169.717 62.364 Z M 169.717 31.474 C 168.543 31.474 167.61 31.154 166.917 30.514 C 166.223 29.874 165.877 29.034 165.877 27.994 C 165.877 26.954 166.223 26.121 166.917 25.494 C 167.61 24.874 168.543 24.564 169.717 24.564 C 170.863 24.564 171.793 24.874 172.507 25.494 C 173.213 26.121 173.567 26.954 173.567 27.994 C 173.567 29.034 173.22 29.874 172.527 30.514 C 171.833 31.154 170.897 31.474 169.717 31.474 ZM 209.913 36.004 C 212.687 36.004 214.81 36.827 216.283 38.474 C 217.757 40.121 218.493 42.781 218.493 46.454 L 218.493 59.244 C 218.493 60.251 218.19 61.024 217.583 61.564 C 216.977 62.097 216.19 62.364 215.223 62.364 C 214.283 62.364 213.51 62.097 212.903 61.564 C 212.297 61.024 211.993 60.251 211.993 59.244 L 211.993 46.454 C 211.993 44.547 211.657 43.187 210.983 42.374 C 210.303 41.561 209.27 41.154 207.883 41.154 C 206.19 41.154 204.84 41.734 203.833 42.894 C 202.827 44.054 202.323 45.641 202.323 47.654 L 202.323 59.244 C 202.323 60.251 202.02 61.024 201.413 61.564 C 200.807 62.097 200.037 62.364 199.103 62.364 C 198.163 62.364 197.383 62.097 196.763 61.564 C 196.137 61.024 195.823 60.251 195.823 59.244 L 195.823 46.454 C 195.823 44.547 195.487 43.187 194.813 42.374 C 194.133 41.561 193.1 41.154 191.713 41.154 C 190.013 41.154 188.67 41.734 187.683 42.894 C 186.697 44.054 186.203 45.641 186.203 47.654 L 186.203 59.244 C 186.203 60.251 185.89 61.024 185.263 61.564 C 184.643 62.097 183.863 62.364 182.923 62.364 C 181.99 62.364 181.22 62.097 180.613 61.564 C 180.007 61.024 179.703 60.251 179.703 59.244 L 179.703 39.124 C 179.703 38.151 180.017 37.404 180.643 36.884 C 181.263 36.364 182.043 36.104 182.983 36.104 C 183.883 36.104 184.62 36.357 185.193 36.864 C 185.76 37.364 186.043 38.081 186.043 39.014 L 186.043 40.264 C 186.843 38.877 187.91 37.821 189.243 37.094 C 190.577 36.367 192.11 36.004 193.843 36.004 C 197.657 36.004 200.207 37.597 201.493 40.784 C 202.253 39.331 203.38 38.171 204.873 37.304 C 206.36 36.437 208.04 36.004 209.913 36.004 ZM 236.115 36.004 C 239.655 36.004 242.282 36.877 243.995 38.624 C 245.715 40.377 246.575 43.041 246.575 46.614 L 246.575 59.294 C 246.575 60.234 246.295 60.971 245.735 61.504 C 245.182 62.044 244.422 62.314 243.455 62.314 C 242.548 62.314 241.812 62.037 241.245 61.484 C 240.672 60.931 240.385 60.201 240.385 59.294 L 240.385 58.154 C 239.792 59.507 238.865 60.564 237.605 61.324 C 236.338 62.091 234.872 62.474 233.205 62.474 C 231.505 62.474 229.962 62.127 228.575 61.434 C 227.188 60.741 226.098 59.787 225.305 58.574 C 224.505 57.361 224.105 56.007 224.105 54.514 C 224.105 52.641 224.582 51.167 225.535 50.094 C 226.488 49.021 228.042 48.241 230.195 47.754 C 232.342 47.267 235.305 47.024 239.085 47.024 L 240.385 47.024 L 240.385 45.834 C 240.385 44.134 240.022 42.894 239.295 42.114 C 238.562 41.334 237.382 40.944 235.755 40.944 C 234.748 40.944 233.725 41.091 232.685 41.384 C 231.645 41.677 230.415 42.101 228.995 42.654 C 228.095 43.107 227.435 43.334 227.015 43.334 C 226.395 43.334 225.885 43.107 225.485 42.654 C 225.085 42.207 224.885 41.621 224.885 40.894 C 224.885 40.301 225.032 39.787 225.325 39.354 C 225.625 38.921 226.122 38.514 226.815 38.134 C 228.028 37.474 229.475 36.954 231.155 36.574 C 232.835 36.194 234.488 36.004 236.115 36.004 Z M 234.505 57.794 C 236.238 57.794 237.652 57.211 238.745 56.044 C 239.838 54.884 240.385 53.387 240.385 51.554 L 240.385 50.454 L 239.445 50.454 C 237.125 50.454 235.322 50.561 234.035 50.774 C 232.755 50.981 231.838 51.344 231.285 51.864 C 230.732 52.384 230.455 53.094 230.455 53.994 C 230.455 55.101 230.845 56.011 231.625 56.724 C 232.405 57.437 233.365 57.794 234.505 57.794 ZM 266.382 57.534 C 268.115 57.634 268.982 58.414 268.982 59.874 C 268.982 60.701 268.642 61.331 267.962 61.764 C 267.289 62.197 266.329 62.381 265.082 62.314 L 263.672 62.214 C 257.852 61.794 254.942 58.674 254.942 52.854 L 254.942 41.514 L 252.342 41.514 C 251.402 41.514 250.682 41.307 250.182 40.894 C 249.682 40.474 249.432 39.867 249.432 39.074 C 249.432 38.274 249.682 37.667 250.182 37.254 C 250.682 36.834 251.402 36.624 252.342 36.624 L 254.942 36.624 L 254.942 31.844 C 254.942 30.904 255.235 30.157 255.822 29.604 C 256.415 29.051 257.212 28.774 258.212 28.774 C 259.185 28.774 259.965 29.051 260.552 29.604 C 261.145 30.157 261.442 30.904 261.442 31.844 L 261.442 36.624 L 265.862 36.624 C 266.795 36.624 267.515 36.834 268.022 37.254 C 268.522 37.667 268.772 38.274 268.772 39.074 C 268.772 39.867 268.522 40.474 268.022 40.894 C 267.515 41.307 266.795 41.514 265.862 41.514 L 261.442 41.514 L 261.442 53.314 C 261.442 55.881 262.619 57.251 264.972 57.424 L 266.382 57.534 ZM 283.958 62.474 C 281.358 62.474 279.078 61.934 277.118 60.854 C 275.158 59.781 273.642 58.241 272.568 56.234 C 271.495 54.221 270.958 51.881 270.958 49.214 C 270.958 46.541 271.495 44.207 272.568 42.214 C 273.642 40.221 275.158 38.687 277.118 37.614 C 279.078 36.541 281.358 36.004 283.958 36.004 C 286.558 36.004 288.835 36.541 290.788 37.614 C 292.748 38.687 294.258 40.221 295.318 42.214 C 296.372 44.207 296.898 46.541 296.898 49.214 C 296.898 51.881 296.372 54.221 295.318 56.234 C 294.258 58.241 292.748 59.781 290.788 60.854 C 288.835 61.934 286.558 62.474 283.958 62.474 Z M 283.898 57.424 C 286.018 57.424 287.632 56.731 288.738 55.344 C 289.845 53.957 290.398 51.914 290.398 49.214 C 290.398 46.541 289.845 44.504 288.738 43.104 C 287.632 41.697 286.038 40.994 283.958 40.994 C 281.878 40.994 280.275 41.697 279.148 43.104 C 278.022 44.504 277.458 46.541 277.458 49.214 C 277.458 51.914 278.012 53.957 279.118 55.344 C 280.225 56.731 281.818 57.424 283.898 57.424 ZM 316.455 36.104 C 317.355 36.037 318.065 36.227 318.585 36.674 C 319.105 37.127 319.365 37.804 319.365 38.704 C 319.365 39.644 319.139 40.337 318.685 40.784 C 318.239 41.237 317.425 41.534 316.245 41.674 L 314.685 41.824 C 312.639 42.031 311.139 42.724 310.185 43.904 C 309.232 45.084 308.755 46.557 308.755 48.324 L 308.755 59.244 C 308.755 60.251 308.442 61.024 307.815 61.564 C 307.195 62.097 306.415 62.364 305.475 62.364 C 304.542 62.364 303.772 62.097 303.165 61.564 C 302.559 61.024 302.255 60.251 302.255 59.244 L 302.255 39.124 C 302.255 38.151 302.559 37.404 303.165 36.884 C 303.772 36.364 304.525 36.104 305.425 36.104 C 306.325 36.104 307.055 36.357 307.615 36.864 C 308.169 37.364 308.445 38.081 308.445 39.014 L 308.445 41.094 C 309.105 39.574 310.085 38.397 311.385 37.564 C 312.685 36.731 314.132 36.261 315.725 36.154 L 316.455 36.104 ZM 351.239 57.274 C 351.793 57.927 352.069 58.584 352.069 59.244 C 352.069 60.077 351.749 60.807 351.109 61.434 C 350.469 62.054 349.733 62.364 348.899 62.364 C 348.033 62.364 347.269 61.984 346.609 61.224 L 336.049 48.114 L 325.449 61.224 C 324.823 61.951 324.076 62.314 323.209 62.314 C 322.376 62.314 321.639 62.011 320.999 61.404 C 320.359 60.797 320.039 60.077 320.039 59.244 C 320.039 58.551 320.299 57.894 320.819 57.274 L 332.149 43.434 L 321.289 30.174 C 320.769 29.621 320.509 28.964 320.509 28.204 C 320.509 27.371 320.819 26.651 321.439 26.044 C 322.066 25.437 322.796 25.134 323.629 25.134 C 324.496 25.134 325.256 25.514 325.909 26.274 L 336.049 38.814 L 346.189 26.274 C 346.816 25.514 347.563 25.134 348.429 25.134 C 349.263 25.134 349.999 25.437 350.639 26.044 C 351.279 26.651 351.599 27.371 351.599 28.204 C 351.599 28.964 351.339 29.621 350.819 30.174 L 339.949 43.434 L 351.239 57.274 Z" transform="matrix(1, 0, 0, 1, 0, 0)" style="fill: rgb(51, 51, 51); white-space: pre;"/>
</svg>