<?xml version="1.0" standalone="no"?>
<!DOCTYPE svg PUBLIC "-//W3C//DTD SVG 20010904//EN"
 "http://www.w3.org/TR/2001/REC-SVG-20010904/DTD/svg10.dtd">
<svg version="1.0" xmlns="http://www.w3.org/2000/svg"
 width="700.000000pt" height="700.000000pt" viewBox="0 0 700.000000 700.000000"
 preserveAspectRatio="xMidYMid meet">
<metadata>
Created by potrace 1.14, written by Peter Selinger 2001-2017
</metadata>
<g transform="translate(0.000000,700.000000) scale(0.100000,-0.100000)"
fill="#000000" stroke="none">
<path d="M3278 6996 c-1 -2 -42 -6 -89 -10 -47 -4 -95 -8 -105 -10 -10 -2 -48
-7 -84 -12 -36 -4 -67 -8 -70 -9 -3 -1 -25 -5 -50 -9 -25 -4 -101 -21 -170
-38 -69 -16 -134 -31 -146 -34 -95 -19 -416 -141 -579 -220 -180 -87 -441
-242 -555 -331 -235 -181 -377 -311 -545 -498 -222 -247 -446 -591 -570 -875
-25 -58 -50 -114 -55 -125 -45 -93 -150 -427 -176 -560 -2 -11 -10 -54 -19
-95 -29 -147 -35 -193 -52 -370 -15 -163 -8 -592 12 -711 2 -13 6 -46 9 -74 9
-78 22 -152 51 -285 52 -244 164 -554 288 -800 61 -122 169 -312 187 -330 3
-3 31 -43 62 -90 170 -255 431 -534 708 -755 92 -74 370 -265 386 -265 4 0 15
-6 23 -14 9 -7 81 -47 161 -88 354 -181 736 -303 1109 -354 25 -3 57 -8 71
-10 163 -25 682 -25 842 1 13 2 46 7 73 10 71 10 87 13 115 18 14 3 43 8 65
12 325 59 741 212 1039 384 49 28 91 51 93 51 10 0 268 180 353 247 151 118
324 281 450 422 36 41 70 79 76 85 65 68 263 353 352 508 46 79 172 331 172
342 0 3 11 29 24 58 57 127 151 421 182 573 17 81 54 301 59 350 4 33 9 71 11
85 9 47 11 525 3 605 -15 165 -21 220 -24 225 -2 3 -6 30 -10 60 -9 75 -69
337 -99 435 -282 928 -914 1689 -1760 2119 -331 169 -728 299 -1036 341 -19 3
-46 7 -60 10 -13 2 -52 7 -86 11 -33 3 -74 8 -90 10 -33 5 -540 14 -546 10z
m392 -820 c127 -8 177 -14 345 -42 46 -7 223 -53 290 -74 234 -74 469 -187
680 -327 71 -48 135 -92 141 -97 7 -6 20 -18 31 -26 454 -361 780 -852 929
-1396 30 -113 30 -112 54 -240 10 -55 22 -134 25 -175 4 -41 9 -90 11 -109 5
-45 5 -346 0 -385 -2 -16 -7 -66 -11 -110 -3 -43 -8 -82 -10 -85 -1 -3 -6 -25
-9 -50 -8 -60 -10 -69 -40 -193 -115 -477 -355 -905 -706 -1258 -276 -277
-598 -485 -955 -619 -113 -42 -222 -77 -259 -84 -6 -1 -20 -5 -31 -9 -11 -3
-31 -8 -45 -11 -14 -3 -59 -12 -100 -20 -41 -8 -100 -17 -130 -21 -30 -3 -66
-8 -80 -10 -94 -15 -400 -21 -510 -10 -123 13 -198 23 -305 41 -82 14 -309 79
-417 119 -370 139 -686 342 -963 620 -266 266 -465 567 -598 905 -39 99 -88
247 -102 307 -41 173 -60 279 -70 378 -3 33 -8 80 -11 105 -7 58 -7 328 0 405
8 83 17 166 22 189 2 11 6 36 9 56 7 47 13 78 19 98 3 9 8 33 11 52 23 136
131 433 228 624 51 102 207 348 259 411 9 11 42 52 74 90 81 98 263 277 364
358 261 210 597 390 890 477 41 12 95 28 120 36 25 7 61 16 80 19 19 3 51 10
70 15 62 16 242 39 355 46 61 4 111 7 112 8 3 2 133 -2 233 -8z"/>
<path d="M3344 5790 c-100 -32 -252 -146 -270 -202 -3 -10 -9 -18 -14 -18 -11
0 -66 -144 -74 -195 -9 -55 -9 -1901 -1 -1950 31 -175 140 -319 300 -395 28
-13 138 -74 245 -135 107 -62 215 -123 240 -137 25 -14 195 -112 379 -217 184
-105 359 -200 389 -211 95 -36 175 -43 277 -24 242 46 419 259 418 504 -1 197
-97 351 -294 470 -55 33 -102 60 -104 60 -2 0 -59 32 -127 71 -67 40 -138 81
-158 92 -19 10 -92 52 -162 93 -70 41 -129 74 -132 74 -2 0 -57 31 -122 70
l-119 70 -5 792 c-3 436 -8 802 -12 813 -56 180 -166 304 -326 366 -80 31
-242 35 -328 9z"/>
</g>
</svg>
