<?xml version="1.0" standalone="no"?>
<!DOCTYPE svg PUBLIC "-//W3C//DTD SVG 20010904//EN"
 "http://www.w3.org/TR/2001/REC-SVG-20010904/DTD/svg10.dtd">
<svg version="1.0" xmlns="http://www.w3.org/2000/svg"
 width="700.000000pt" height="700.000000pt" viewBox="0 0 700.000000 700.000000"
 preserveAspectRatio="xMidYMid meet">
<metadata>
Created by potrace 1.11, written by Peter Selinger 2001-2013
</metadata>
<g transform="translate(0.000000,700.000000) scale(0.100000,-0.100000)"
fill="#000000" stroke="none">
<path d="M3278 6996 c-1 -2 -41 -6 -88 -10 -87 -7 -105 -9 -225 -27 -116 -18
-123 -19 -192 -35 -154 -34 -203 -47 -313 -81 -260 -79 -581 -227 -815 -374
-116 -73 -181 -119 -317 -226 -539 -426 -932 -987 -1152 -1645 -31 -94 -79
-267 -91 -329 -3 -13 -11 -58 -20 -99 -29 -147 -35 -193 -52 -370 -15 -163 -8
-592 12 -711 2 -13 6 -46 9 -74 9 -78 23 -156 51 -285 23 -107 88 -333 114
-395 5 -11 25 -65 46 -120 50 -132 181 -398 250 -508 30 -49 55 -90 55 -93 0
-3 4 -10 10 -17 5 -7 46 -64 91 -126 189 -268 408 -499 679 -716 92 -74 370
-265 386 -265 4 0 15 -6 23 -14 29 -25 304 -161 431 -213 165 -67 424 -150
563 -179 92 -19 211 -41 272 -49 22 -2 56 -7 75 -10 186 -26 697 -27 837 -1
17 3 104 16 148 21 178 23 499 113 735 206 136 54 413 189 463 226 17 13 35
23 39 23 5 0 14 5 21 10 7 6 62 44 124 84 251 167 495 380 675 590 34 39 64
73 68 76 4 3 44 55 90 115 152 200 284 417 388 638 23 49 42 91 42 93 0 2 11
27 24 56 57 127 151 421 182 573 17 81 54 301 59 350 4 33 9 71 11 85 9 46 11
524 4 605 -12 128 -21 202 -25 227 -3 13 -8 43 -11 68 -3 25 -9 61 -14 80 -5
19 -12 51 -15 70 -9 53 -62 261 -75 295 -7 17 -14 40 -16 52 -7 35 -93 260
-141 368 -250 558 -660 1058 -1167 1418 -71 50 -137 96 -147 102 -10 5 -49 29
-86 51 -86 53 -298 163 -383 199 -36 15 -83 35 -105 45 -119 52 -416 142 -580
175 -44 9 -89 19 -100 21 -11 2 -38 6 -60 9 -22 3 -51 7 -65 10 -13 2 -52 7
-86 11 -33 3 -74 8 -90 10 -33 5 -540 14 -546 10z m399 -820 c62 -4 121 -9
131 -11 10 -2 43 -6 73 -10 315 -38 723 -183 1005 -358 82 -51 271 -182 284
-196 3 -3 43 -38 90 -78 120 -101 246 -235 383 -408 155 -196 313 -499 403
-770 58 -176 89 -314 119 -527 15 -110 22 -426 11 -513 -2 -16 -7 -66 -11
-110 -3 -43 -8 -82 -10 -85 -1 -3 -6 -25 -9 -50 -21 -152 -86 -386 -159 -565
-165 -406 -463 -810 -797 -1078 -173 -140 -432 -297 -620 -376 -30 -13 -64
-27 -75 -32 -155 -66 -441 -143 -610 -164 -22 -2 -58 -7 -80 -10 -119 -16
-400 -21 -515 -10 -119 12 -192 22 -265 35 -27 5 -63 12 -80 15 -66 10 -286
76 -390 115 -363 138 -677 341 -950 615 -266 266 -464 566 -598 905 -39 99
-88 247 -102 307 -41 173 -60 279 -70 378 -3 33 -8 80 -11 105 -7 58 -7 328 0
405 8 83 17 166 22 189 2 11 6 38 9 61 4 22 10 56 15 75 5 19 11 51 14 70 18
116 132 432 217 602 315 630 898 1134 1559 1346 118 38 194 59 240 67 19 3 43
8 52 11 54 16 250 43 373 50 61 4 111 7 112 8 3 2 133 -2 240 -8z"/>
<path d="M3432 5808 c-227 -30 -410 -209 -447 -435 -8 -53 -8 -1900 0 -1948
31 -176 140 -320 300 -395 28 -13 308 -171 623 -352 554 -316 642 -362 720
-374 174 -28 347 29 462 153 155 166 187 389 84 593 -54 107 -149 187 -359
301 -33 17 -72 40 -87 51 -14 10 -29 18 -32 18 -3 0 -35 18 -71 40 -36 22 -67
40 -69 40 -2 0 -53 29 -114 64 -61 36 -132 76 -157 90 -24 14 -97 55 -160 91
l-115 66 -3 792 c-1 436 -5 801 -9 812 -20 64 -49 127 -75 166 -85 124 -222
210 -356 225 -29 3 -56 6 -62 8 -5 1 -38 -2 -73 -6z"/>
</g>
</svg>
